<svg xmlns="http://www.w3.org/2000/svg" fill="none" viewBox="0 0 119 28" width="119"><g fill="currentColor" clip-path="url(#logo_svg__a)"><path d="m42.375 6.59-6.062 15.599h2.693l1.426-3.7h6.595l1.426 3.7h2.693l-6.062-15.6h-2.717zm-.983 9.446 2.341-6.085 2.341 6.085zM55.11 13.162v-1.538h-2.544v10.564h2.671v-6.91s.736-1.426 2.364-1.426c.78 0 1.268.248 1.268.248l.938-2.409s-.87-.338-1.83-.338c-1.96 0-2.874 1.809-2.874 1.809zM66.121 19.96c-1.808 0-2.963-1.404-2.963-3.054s1.155-3.054 2.963-3.054c1.606 0 2.476 1.11 2.476 1.11l1.846-1.65s-1.493-1.958-4.322-1.958c-3.166 0-5.68 2.43-5.68 5.544s2.521 5.545 5.68 5.545c2.852 0 4.367-2.003 4.367-2.003l-1.763-1.786s-.803 1.29-2.604 1.29zM79.8 13.004s-.982-1.65-3.188-1.65c-2.739 0-5.147 2.296-5.147 5.544 0 3.25 2.408 5.545 5.147 5.545 2.273 0 3.189-1.65 3.189-1.65v1.38h2.476V11.609H79.8v1.3949999999999998m-.202 5.478s-.78 1.47-2.498 1.47c-1.801 0-2.919-1.313-2.919-3.054s1.11-3.053 2.919-3.053a2.79 2.79 0 0 1 2.498 1.47zM90.602 11.354c-2.228 0-3.166 1.808-3.166 1.808v-1.538h-2.499v10.564h2.672v-6.97s.712-1.358 2.093-1.358c1.156 0 2.094.645 2.094 2.16v6.176h2.67v-6.843c0-2.544-1.823-3.992-3.879-3.992zM102.438 19.361l-3.564-7.728H95.91l5.147 10.804-.42 1.096c-.51 1.29-.893 1.56-1.808 1.56-.69 0-1.403-.69-1.403-.69l-1.246 2.071s1.223 1.11 2.829 1.11 3.054-.712 3.969-3.03l5.125-12.921h-2.874l-2.784 7.728zM114.421 15.878c-1.786-.375-2.499-.533-2.499-1.178s.916-1.005 1.913-1.005c1.426 0 2.626.915 2.626.915l1.336-1.958s-1.583-1.29-3.969-1.29c-2.896 0-4.547 1.65-4.547 3.3 0 2.004 1.823 2.897 3.924 3.34 1.606.337 2.093.465 2.093 1.155 0 .645-.915.96-2.003.96-1.786 0-3.189-1.515-3.189-1.515l-1.493 1.936s1.673 1.913 4.772 1.913c2.694 0 4.615-1.448 4.615-3.256 0-2.184-1.493-2.874-3.587-3.324zM22.084 1.376s-.037-.068-.06-.098c-.03-.06-.068-.12-.105-.18-.038-.052-.075-.105-.12-.157a1 1 0 0 0-.128-.143 1 1 0 0 0-.157-.135 1 1 0 0 0-.143-.105c-.06-.037-.127-.075-.187-.113-.03-.015-.06-.037-.09-.052L21.026.37a1 1 0 0 0-.203-.067c-.06-.015-.112-.038-.172-.045a1 1 0 0 0-.195-.023c-.06-.022-.128-.022-.188-.022-.067 0-.127 0-.195.015-.06 0-.127.015-.187.022q-.088.02-.188.053c-.067.022-.128.037-.195.067l-.068.023q-.054.024-.097.06c-.06.03-.12.068-.18.105L19 .671a1 1 0 0 0-.142.127c-.045.045-.09.098-.135.15-.038.045-.075.098-.113.15-.037.06-.075.12-.113.188-.014.03-.037.06-.052.097l-7.84 17.108H2.905A1.997 1.997 0 0 0 .91 20.494c0 1.11.893 2.003 1.996 2.003h8.561c.075 0 .143-.015.21-.022.068 0 .135.022.203.022a1.99 1.99 0 0 0 1.815-1.17l6.55-14.301 6.536 14.3a2 2 0 0 0 1.823 1.171 1.999 1.999 0 0 0 1.823-2.829z"></path></g><defs><clipPath id="logo_svg__a"><path fill="#fff" d="M0 0h119v27.985H0z"></path></clipPath></defs></svg>