<svg xmlns="http://www.w3.org/2000/svg" xmlns:xlink="http://www.w3.org/1999/xlink" xmlns:serif="http://www.serif.com/" width="100%" height="100%" viewBox="0 0 239 42" xml:space="preserve" style="fill-rule:evenodd;clip-rule:evenodd;stroke-linejoin:round;stroke-miterlimit:2;"><path d="M29.193,8.511c2.426,-1.528 5.319,-2.441 8.432,-2.503l0,6.68c-3.416,0.123 -6.787,1.958 -8.433,4.645l-0.002,17.834l-8.035,0l-0,-27.902c-0,-0.264 0.292,-0.477 0.645,-0.477l6.753,-0c0.353,-0 0.64,0.213 0.64,0.477l-0,1.246Z" style="fill:#fff;"></path><path d="M84.682,20.717l-12.854,-14.193c-0.299,-0.329 -0.296,-0.82 0.007,-1.094l5.795,-5.249c0.303,-0.274 0.796,-0.233 1.095,0.097l12.233,13.509l12.233,-13.509c0.299,-0.33 0.792,-0.371 1.095,-0.097l5.795,5.249c0.303,0.274 0.306,0.765 0.007,1.094l-12.854,14.193l13.076,14.439l-6.898,6.246l-12.454,-13.754l-12.454,13.754l-6.898,-6.246l13.076,-14.439Z" style="fill:#fff;"></path><path d="M112.112,15.886c-0,-3.52 -0.118,-6.463 -0.236,-9.002l7.64,-0l0.355,3.867l0.177,-0c1.244,-1.846 3.85,-4.502 8.765,-4.502c3.792,0 6.694,1.905 7.938,4.848l0.118,-0c1.126,-1.499 2.37,-2.654 3.79,-3.462c1.6,-0.866 3.376,-1.386 5.51,-1.386c5.567,0 9.771,3.809 9.771,12.234l0,16.616l-8.765,0l-0,-15.29c-0,-4.096 -1.362,-6.462 -4.264,-6.462c-2.132,-0 -3.554,1.385 -4.206,3.059c-0.178,0.633 -0.296,1.499 -0.296,2.192l-0,16.503l-8.766,-0l0,-15.81c0,-3.52 -1.304,-5.944 -4.206,-5.944c-2.309,-0 -3.671,1.731 -4.205,3.115c-0.296,0.693 -0.354,1.501 -0.354,2.25l-0,16.389l-8.766,-0l-0,-19.215Z" style="fill:#fff;fill-rule:nonzero;"></path><path d="M230.422,17.591c-0,-2.086 -0.95,-5.734 -5.053,-5.734c-3.865,0 -5.41,3.417 -5.648,5.734l10.701,-0Zm-10.641,6.023c0.296,3.708 3.981,5.444 8.204,5.444c3.09,0 5.588,-0.405 8.025,-1.216l1.189,5.966c-2.972,1.215 -6.599,1.795 -10.523,1.795c-9.869,0 -15.517,-5.559 -15.517,-14.479c-0,-7.183 4.637,-15.117 14.686,-15.117c9.392,0 12.959,7.125 12.959,14.132c0,1.505 -0.178,2.838 -0.296,3.533l-18.727,-0.058Z" style="fill:#fff;fill-rule:nonzero;"></path><path d="M182.672,9.409l0,-2.523l7.466,0l-0,28.214l-7.466,-0l0,-2.991c-2.557,2.127 -5.844,3.406 -9.43,3.406c-8.146,0 -14.756,-6.61 -14.756,-14.754c0,-8.15 6.61,-14.758 14.756,-14.758c3.586,0 6.873,1.279 9.43,3.406Zm-3.877,17.409c1.728,-1.584 2.702,-3.831 2.672,-6.173c-0.061,-4.543 -3.788,-8.172 -8.327,-8.107c-4.543,0.065 -8.177,3.798 -8.116,8.337c0.058,4.542 3.785,8.171 8.325,8.106c2.02,-0.029 3.957,-0.798 5.446,-2.163Z" style="fill:#fff;"></path><path d="M196.824,14.574l-3.93,-0l0,-7.703l3.93,-0l0,-3.242l-0.053,-1.48l7.554,-0.048l0.064,4.77l5.07,-0l-0,7.703l-5.043,-0l-0.178,11.035c-0.05,3.109 0.58,3.575 2.161,3.712c1.104,0.094 2.213,-0.091 2.719,-0.337l1.129,5.738c-0.727,0.415 -3.778,0.902 -5.833,0.902c-2.371,0 -4.375,-0.79 -5.586,-2.108c-1.371,-1.476 -2.004,-3.795 -2.004,-7.169l0,-11.773Z" style="fill:#fff;"></path><path d="M4.048,14.685l-4.048,0l0,-7.711l4.048,-0l-0,-3.245l-0.055,-1.481l7.782,-0.048l0.065,4.774l5.224,-0l0,7.711l-5.195,0l-0.183,11.045c-0.052,3.112 0.595,3.578 2.224,3.715c1.136,0.094 2.281,-0.091 2.801,-0.337l1.164,5.744c-0.75,0.414 -3.891,0.901 -6.01,0.901c-2.441,0 -4.505,-0.79 -5.754,-2.109c-1.411,-1.479 -2.063,-3.799 -2.063,-7.176l-0,-11.783Z" style="fill:#fff;"></path><path d="M62.288,9.465l0,-2.522l7.465,-0l0,28.213l-7.465,0l0,-2.99c-2.557,2.126 -5.844,3.406 -9.429,3.406c-8.147,-0 -14.756,-6.61 -14.756,-14.755c-0,-8.149 6.609,-14.757 14.756,-14.757c3.585,-0 6.872,1.278 9.429,3.405Zm-3.877,17.409c1.728,-1.584 2.702,-3.831 2.673,-6.173c-0.062,-4.543 -3.789,-8.172 -8.328,-8.107c-4.543,0.065 -8.177,3.799 -8.115,8.338c0.058,4.541 3.784,8.17 8.324,8.105c2.021,-0.029 3.957,-0.797 5.446,-2.163Z" style="fill:#fff;"></path></svg>